<svg width="160" height="158" viewBox="0 0 160 158" fill="none" xmlns="http://www.w3.org/2000/svg" id="loader">
<path d="M160 91.7716C160 126.746 132.69 155.46 98.5098 157.126C115.089 148.339 127.92 133.293 133.939 115.088C145.748 101.994 152.959 84.5355 152.959 65.4117C152.959 64.2057 152.959 63.0571 152.846 61.8511C157.445 70.8674 160 81.0324 160 91.7716Z" fill="#00FFDA"/>
<path d="M137.573 95.3318C137.629 94.1258 137.686 92.9772 137.686 91.7712C137.686 63.4013 121.788 38.7068 98.5098 26.417C115.543 27.2784 130.873 34.8016 141.944 46.4597C143.761 52.4898 144.726 58.8644 144.726 65.4687C144.726 76.208 142.115 86.3729 137.573 95.3318Z" fill="#E400EA"/>
<path d="M133.826 29.1165C122.64 22.0528 109.411 17.9753 95.2738 17.9753C90.0502 17.9753 84.9403 18.5496 80.0007 19.5833C75.061 18.4921 69.9511 17.9753 64.7276 17.9753C50.59 17.9753 37.3609 22.0528 26.1758 29.1165C37.8151 11.6007 57.5736 0 80.0007 0C102.428 0 122.186 11.6007 133.826 29.1165Z" fill="#0080FF"/>
<path d="M118.492 128.125C109.635 141.563 95.9515 151.499 79.9971 155.404C64.0427 151.499 50.3593 141.563 41.4453 128.125C52.6304 135.189 65.8595 139.266 79.9971 139.266C94.1346 139.266 107.307 135.189 118.492 128.125Z" fill="#0080FF"/>
<path d="M79.9999 28.1394C51.668 35.0883 30.5469 60.9888 30.5469 91.7708C30.5469 98.3751 31.5121 104.807 33.329 110.837C45.1386 123.242 61.6608 130.937 79.9431 130.937C98.2821 130.937 114.804 123.242 126.557 110.837C128.374 104.807 129.339 98.4325 129.339 91.7708C129.396 60.9888 108.332 35.0883 79.9999 28.1394ZM98.9067 107.966C93.4561 107.966 88.5164 105.611 85.053 101.878C88.8003 109.401 94.4213 115.834 101.291 120.485C94.8755 117.269 87.608 115.432 79.9431 115.432C72.2782 115.432 65.0107 117.269 58.5381 120.485C65.4081 115.834 71.0291 109.401 74.8331 101.878C71.3697 105.611 66.4869 107.966 61.0363 107.966C50.5892 107.966 42.1294 99.4088 42.1294 88.7845C42.1294 78.2175 50.5892 69.6606 61.0363 69.6606C64.1022 69.6606 66.9979 70.4072 69.5528 71.728C64.4429 68.3397 61.0363 62.4245 61.0363 55.7628C61.0363 45.1958 69.4961 36.6389 79.9431 36.6389C90.3901 36.6389 98.8499 45.1958 98.8499 55.7628C98.8499 62.4245 95.5 68.2823 90.3901 71.728C92.9451 70.4646 95.7839 69.718 98.8499 69.718C109.297 69.718 117.757 78.2749 117.757 88.8419C117.814 99.4088 109.354 107.966 98.9067 107.966Z" fill="white"/>
<path d="M22.3119 91.7712C22.3119 92.9772 22.3119 94.1833 22.4254 95.3318C17.8832 86.3729 15.2715 76.208 15.2715 65.4687C15.2715 58.8644 16.2367 52.4898 18.0536 46.4597C29.1251 34.8016 44.455 27.2784 61.4882 26.417C38.2095 38.7068 22.3119 63.4013 22.3119 91.7712Z" fill="#00FFDA"/>
<path d="M61.4898 157.126C27.3099 155.403 0 126.746 0 91.7718C0 81.0326 2.55498 70.8676 7.15394 61.9087C7.09716 63.0573 7.04038 64.2633 7.04038 65.4693C7.04038 84.5932 14.2511 101.994 26.0608 115.088C32.0792 133.293 44.9108 148.339 61.4898 157.126Z" fill="#E400EA"/>
</svg>
